# Exported from Wings 3D 2.1.7
mtllib untitled.mtl
o Cube1
#8 vertices, 12 faces
v -0.59251954 -0.59251954 -0.59251954
v -0.59251954 -0.59251954 0.59251954
v -0.59251954 0.59251954 -0.59251954
v -0.59251954 0.59251954 0.59251954
v 0.59251954 -0.59251954 -0.59251954
v 0.59251954 -0.59251954 0.59251954
v 0.59251954 0.59251954 -0.59251954
v 0.59251954 0.59251954 0.59251954
vt 0.0000000e+0 0.0000000e+0
vt 0.0000000e+0 1.6653345e-16
vt 0.0000000e+0 1.00000000
vt 1.6653345e-16 1.00000000
vt 1.00000000 0.0000000e+0
vt 1.00000000 0.0000000e+0
vt 1.00000000 1.00000000
vt 1.00000000 1.00000000
vn -0.57735027 -0.57735027 -0.57735027
vn -0.57735027 -0.57735027 0.57735027
vn -0.57735027 0.57735027 -0.57735027
vn -0.57735027 0.57735027 0.57735027
vn 0.57735027 -0.57735027 -0.57735027
vn 0.57735027 -0.57735027 0.57735027
vn 0.57735027 0.57735027 -0.57735027
vn 0.57735027 0.57735027 0.57735027
g Cube1_Cube1_auv
usemtl Cube1_auv
s 1
f 1/7/1 5/4/5 2/5/2
f 2/6/2 3/3/3 1/1/1
f 2/5/2 5/4/5 6/2/6
f 2/1/2 8/8/8 4/3/4
f 3/7/3 5/2/5 1/5/1
f 3/3/3 8/6/8 7/8/7
f 4/8/4 3/3/3 2/6/2
f 4/1/4 8/6/8 3/3/3
f 5/6/5 8/3/8 6/1/6
f 6/6/6 8/8/8 2/1/2
f 7/4/7 5/2/5 3/7/3
f 7/8/7 8/3/8 5/6/5
